<svg xmlns="http://www.w3.org/2000/svg" viewBox="0 0 800 600" fill="none">
  <path d="M400 500C552.5 500 675 377.5 675 225C675 72.5 552.5 -50 400 -50C247.5 -50 125 72.5 125 225C125 377.5 247.5 500 400 500Z" fill="#EBF4FF"/>
  <path d="M516.667 183.333H283.333C279.651 183.333 276.667 186.318 276.667 190V410C276.667 413.682 279.651 416.667 283.333 416.667H516.667C520.349 416.667 523.333 413.682 523.333 410V190C523.333 186.318 520.349 183.333 516.667 183.333Z" fill="white" stroke="#3B82F6" stroke-width="10"/>
  <path d="M276.667 223.333H523.333" stroke="#3B82F6" stroke-width="10"/>
  <circle cx="300" cy="203.333" r="6.66667" fill="#3B82F6"/>
  <circle cx="323.333" cy="203.333" r="6.66667" fill="#3B82F6"/>
  <circle cx="346.667" cy="203.333" r="6.66667" fill="#3B82F6"/>
  <path d="M343.333 300H456.667" stroke="#3B82F6" stroke-width="10" stroke-linecap="round"/>
  <path d="M343.333 333.333H456.667" stroke="#3B82F6" stroke-width="10" stroke-linecap="round"/>
  <path d="M343.333 366.667H400" stroke="#3B82F6" stroke-width="10" stroke-linecap="round"/>
  <path d="M400 266.667L366.667 300L400 333.333" stroke="#3B82F6" stroke-width="10" stroke-linecap="round" stroke-linejoin="round"/>
  <path d="M633.333 300H583.333V250H633.333V300Z" fill="#3B82F6"/>
  <path d="M633.333 350H583.333V300H633.333V350Z" fill="#93C5FD"/>
  <path d="M583.333 350H533.333V300H583.333V350Z" fill="#3B82F6"/>
  <path d="M583.333 300H533.333V250H583.333V300Z" fill="#93C5FD"/>
  <path d="M183.333 316.667C183.333 325.871 192.538 333.333 203.333 333.333C214.129 333.333 223.333 325.871 223.333 316.667C223.333 307.462 214.129 300 203.333 300" stroke="#3B82F6" stroke-width="10" stroke-linecap="round"/>
  <path d="M183.333 283.333C183.333 274.129 192.538 266.667 203.333 266.667C214.129 266.667 223.333 274.129 223.333 283.333C223.333 292.538 214.129 300 203.333 300" stroke="#3B82F6" stroke-width="10" stroke-linecap="round"/>
  <path d="M223.333 283.333C223.333 274.129 232.538 266.667 243.333 266.667C254.129 266.667 263.333 274.129 263.333 283.333C263.333 292.538 254.129 300 243.333 300" stroke="#3B82F6" stroke-width="10" stroke-linecap="round"/>
  <path d="M223.333 316.667C223.333 325.871 232.538 333.333 243.333 333.333C254.129 333.333 263.333 325.871 263.333 316.667C263.333 307.462 254.129 300 243.333 300" stroke="#3B82F6" stroke-width="10" stroke-linecap="round"/>
</svg>
